<?xml version="1.0" standalone="no"?>
<!DOCTYPE svg PUBLIC "-//W3C//DTD SVG 20010904//EN"
 "http://www.w3.org/TR/2001/REC-SVG-20010904/DTD/svg10.dtd">
<svg version="1.0" xmlns="http://www.w3.org/2000/svg"
 width="800.000000pt" height="800.000000pt" viewBox="0 0 800.000000 800.000000"
 preserveAspectRatio="xMidYMid meet">
<metadata>
Created by potrace 1.11, written by Peter Selinger 2001-2013
</metadata>
<g transform="translate(0.000000,800.000000) scale(0.100000,-0.100000)"
fill="#000000" stroke="none">
<path d="M5425 7163 c-71 -10 -247 -58 -335 -90 -275 -102 -679 -344 -1008
-605 -69 -55 -96 -68 -104 -50 -1 4 -30 30 -62 57 -283 238 -662 459 -961 560
-58 20 -225 63 -271 69 -22 4 -50 8 -63 11 -142 27 -502 27 -641 0 -14 -3 -52
-10 -84 -16 -96 -17 -261 -75 -368 -129 -303 -153 -575 -394 -767 -681 -126
-190 -215 -423 -246 -649 -5 -33 -18 -226 -18 -265 0 -44 14 -259 18 -265 2
-3 6 -27 9 -54 20 -147 119 -476 193 -646 66 -150 182 -369 230 -437 32 -45
114 -162 182 -260 138 -198 202 -284 336 -453 116 -146 366 -460 382 -480 52
-65 173 -210 194 -233 l25 -28 85 37 c46 20 120 53 164 74 44 20 153 69 243
110 l163 73 -23 25 c-13 14 -30 33 -38 41 -8 9 -40 45 -70 80 -30 35 -60 69
-65 75 -9 10 -86 102 -210 251 -270 325 -609 836 -780 1175 -70 139 -154 346
-185 455 -12 44 -26 91 -31 105 -28 86 -52 254 -53 380 -1 160 4 202 38 304
101 300 320 528 606 630 135 48 383 71 496 46 21 -5 53 -11 69 -14 72 -14 84
-17 126 -32 24 -8 51 -17 60 -19 62 -13 342 -141 461 -211 76 -45 204 -125
223 -141 6 -5 33 -24 60 -43 28 -19 52 -37 55 -40 3 -3 44 -36 92 -73 47 -37
93 -73 100 -79 43 -40 145 -123 228 -186 52 -39 117 -92 144 -116 l50 -44 50
43 c28 24 79 74 112 112 180 199 214 233 321 324 239 204 362 281 648 404 74
32 249 86 335 104 138 29 339 24 470 -11 289 -78 494 -249 634 -528 67 -133
89 -229 90 -390 1 -117 -5 -205 -17 -260 -2 -8 -7 -33 -12 -55 -26 -137 -103
-368 -178 -537 -14 -32 -22 -58 -18 -58 9 0 76 29 219 96 52 24 95 44 98 44 2
0 34 14 71 31 38 17 113 51 168 76 55 24 132 59 170 77 39 18 104 48 146 67
l77 34 12 75 c7 41 14 84 15 95 14 84 19 328 10 425 -29 305 -129 579 -297
815 -75 105 -280 327 -386 418 -184 157 -468 292 -697 331 -16 3 -41 8 -55 11
-45 9 -84 15 -140 21 -30 3 -66 8 -80 10 -34 7 -377 13 -415 7z"/>
<path d="M7250 4342 c-85 -42 -234 -115 -330 -161 -462 -222 -480 -232 -495
-261 -8 -15 -20 -34 -28 -42 -7 -7 -27 -34 -45 -60 -38 -55 -271 -357 -316
-409 -17 -20 -51 -60 -76 -90 -59 -70 -249 -289 -269 -310 -9 -9 -61 -66 -116
-125 -303 -330 -872 -892 -1020 -1006 -16 -12 -39 -32 -51 -43 -27 -26 -51
-46 -229 -195 -83 -69 -160 -135 -173 -148 -44 -43 -73 -55 -130 -57 l-57 -2
-135 136 c-74 75 -192 197 -263 271 -70 74 -156 158 -190 187 -34 29 -75 63
-90 77 -16 14 -45 38 -65 55 -20 16 -53 44 -72 61 -108 98 -213 180 -231 180
-10 0 -103 -36 -205 -79 -184 -79 -324 -153 -324 -171 0 -35 286 -327 505
-515 162 -140 599 -504 665 -554 180 -138 332 -220 455 -247 56 -13 186 3 269
32 90 31 160 73 250 150 113 98 934 940 1182 1214 33 36 86 94 120 130 33 36
80 87 105 114 24 27 53 58 64 70 18 19 146 165 283 323 29 34 92 110 139 170
48 59 89 110 93 113 3 3 21 25 40 50 19 25 37 47 40 50 4 3 84 102 179 220 95
118 180 224 189 235 10 11 42 56 72 100 30 44 104 148 164 230 134 183 228
321 244 358 6 15 11 27 9 26 -1 0 -72 -35 -157 -77z"/>
</g>
</svg>
